<svg width="40" height="26" viewBox="0 0 40 26" fill="none" xmlns="http://www.w3.org/2000/svg">
<path d="M17.036 19.132H17.972V25H0.728V24.064L2.708 23.848C3.092 23.8 3.32 23.704 3.392 23.56C3.464 23.416 3.5 22.924 3.5 22.084V3.436C3.5 2.596 3.464 2.104 3.392 1.96C3.32 1.816 3.092 1.72 2.708 1.672L0.728 1.492V0.52H17.504V6.388H16.604L15.56 2.608C15.488 2.32 15.404 2.116 15.308 1.996C15.236 1.852 15.08 1.768 14.84 1.744C14.6 1.696 14.192 1.672 13.616 1.672H6.632V12.076H11.456C12.032 12.076 12.44 12.064 12.68 12.04C12.92 11.992 13.076 11.908 13.148 11.788C13.244 11.644 13.328 11.428 13.4 11.14L14.084 8.44H15.02V16.864H14.084L13.4 14.164C13.328 13.876 13.244 13.672 13.148 13.552C13.076 13.408 12.92 13.324 12.68 13.3C12.44 13.252 12.032 13.228 11.456 13.228H6.632V23.848H14.048C14.624 23.848 15.032 23.836 15.272 23.812C15.512 23.764 15.668 23.68 15.74 23.56C15.836 23.416 15.92 23.2 15.992 22.912L17.036 19.132ZM31.9068 25.36C28.8588 25.36 26.5308 24.34 24.9228 22.3C23.3388 20.26 22.5468 17.524 22.5468 14.092V11.392C22.5468 9.136 22.8828 7.168 23.5548 5.488C24.2508 3.808 25.2708 2.5 26.6148 1.564C27.9588 0.627998 29.6028 0.159998 31.5468 0.159998C33.3468 0.159998 34.8348 0.519998 36.0108 1.24C37.1868 1.936 38.0388 2.86 38.5668 4.012C39.0948 5.14 39.2628 6.376 39.0708 7.72L35.9748 8.476C36.2388 6.172 35.9748 4.408 35.1828 3.184C34.3908 1.936 33.1788 1.312 31.5468 1.312C29.7228 1.312 28.3308 1.96 27.3708 3.256C26.4348 4.552 25.9668 6.664 25.9668 9.592V15.892C25.9668 18.844 26.4708 20.968 27.4788 22.264C28.4868 23.56 29.9868 24.208 31.9788 24.208C32.7708 24.208 33.5268 24.076 34.2468 23.812C34.9668 23.524 35.5788 23.044 36.0828 22.372C36.5868 21.7 36.8988 20.764 37.0188 19.564L39.2508 20.14C38.7228 22.06 37.7868 23.416 36.4428 24.208C35.1228 24.976 33.6108 25.36 31.9068 25.36Z" fill="#232964"/>
</svg>
