<svg xmlns="http://www.w3.org/2000/svg" width="1000pt" height="1000pt" viewBox="0 0 1000 1000"><g data-name="W Mark"><clipPath id="a"><path transform="matrix(1 0 0 -1 0 1000)" d="M0 1000h1000V0H0z"/></clipPath><g clip-path="url(#a)" fill="#32373c"><path d="M500 166.667c-184.095 0-333.333 149.238-333.333 333.333 0 184.095 149.238 333.334 333.333 333.334 184.095 0 333.333-149.24 333.333-333.334 0-184.095-149.238-333.333-333.333-333.333m0 20c42.309 0 83.34 8.282 121.957 24.615a313.39 313.39 0 0 1 53.217 28.885 315.676 315.676 0 0 1 46.386 38.273 315.728 315.728 0 0 1 38.273 46.386 313.32 313.32 0 0 1 28.885 53.217c16.334 38.616 24.615 79.649 24.615 121.957 0 42.309-8.281 83.34-24.615 121.957a313.32 313.32 0 0 1-28.885 53.217 315.676 315.676 0 0 1-38.273 46.386 315.676 315.676 0 0 1-46.386 38.273 313.32 313.32 0 0 1-53.217 28.885C583.34 805.052 542.309 813.334 500 813.334c-42.308 0-83.341-8.282-121.957-24.616a313.32 313.32 0 0 1-53.217-28.885 315.728 315.728 0 0 1-46.386-38.273 315.676 315.676 0 0 1-38.273-46.386 313.39 313.39 0 0 1-28.885-53.217C194.949 583.34 186.667 542.309 186.667 500c0-42.308 8.282-83.341 24.615-121.957a313.39 313.39 0 0 1 28.885-53.217 315.728 315.728 0 0 1 38.273-46.386 315.728 315.728 0 0 1 46.386-38.273 313.39 313.39 0 0 1 53.217-28.885c38.616-16.333 79.649-24.615 121.957-24.615"/><path d="M743.76 366.732c1.192 8.846 1.866 18.337 1.866 28.561 0 28.177-5.279 59.864-21.129 99.49L639.658 740.08c82.583-48.146 138.12-137.615 138.12-240.09 0-48.295-12.342-93.697-34.019-133.258M504.88 524.286 421.524 766.46A277.57 277.57 0 0 0 500 777.777c32.347 0 63.38-5.583 92.25-15.749-.744-1.188-1.429-2.45-1.994-3.828zm182.643-38.306c0-34.34-12.335-58.108-22.899-76.605-14.082-22.892-27.287-42.259-27.287-65.15 0-25.53 19.361-49.298 46.647-49.298 1.233 0 2.4.148 3.597.224-49.42-45.282-115.265-72.929-187.58-72.929-97.05 0-182.422 49.795-232.092 125.197 6.522.207 12.667.337 17.877.337 29.048 0 74.035-3.53 74.035-3.53 14.966-.878 16.735 21.121 1.776 22.89 0 0-15.053 1.763-31.789 2.64l101.15 300.883 60.797-182.31-43.275-118.574c-14.966-.876-29.134-2.639-29.134-2.639-14.974-.884-13.22-23.768 1.762-22.89 0 0 45.863 3.53 73.156 3.53 29.048 0 74.042-3.53 74.042-3.53 14.974-.878 16.736 21.121 1.77 22.89 0 0-15.068 1.763-31.79 2.64l100.386 298.591 28.656-90.8c12.731-39.684 20.195-67.799 20.195-91.567m-465.3 14.01c0 109.944 63.89 204.967 156.56 249.988L246.274 386.944c-15.413 34.543-24.053 72.773-24.053 113.045"/></g></g></svg>